<?xml version="1.0" encoding="UTF-8" standalone="no"?>
<svg xmlns="http://www.w3.org/2000/svg" height="698.2" width="660.03" version="1.1" viewBox="195 98 363.23595 381.64825">
<g stroke="#000" stroke-width="2" fill="none">
  <path d="m361.88 155.98 0.83301-20"/>
  <path d="m361.88 207.46 0.33301 49.248"/>
  <path d="m241.88 256.71v-10.731h107.92v-36.705"/>
  <path d="m481.88 256.71v-10.731h-107.92v-36.705"/>
  <path d="m362.21 345.98v-28.019"/>
  <path d="m374.46 317.96v18.019h27.75v10"/>
  <path d="m349.96 317.96v18.019h-27.75v10"/>
  <path d="m221.76 313.87v31.39"/>
  <path d="m261.76 313.87v31.39"/>
  <path d="m469.8 310v25.975h-15.499v10"/>
  <path d="m493.96 310v25.975h17.519v10.556"/>
  <path d="m531.31 436.71v-28.925"/>
  <path d="m491.31 436.71v-28.925"/>
</g>
<g stroke="#000" stroke-width="2" fill="#fff">
  <path d="m287.71 105.98h150v30h-150z"/>
  <path d="m361.88 155.98c24.166 12.083 24.166 36.25 24.166 60.417-12.083-12.084-36.25-12.084-48.333 0 0-24.167 0-48.334 24.167-60.417"/>
  <path d="m481.88 256.71c24.166 12.083 24.166 36.25 24.166 60.416-12.083-12.083-36.25-12.083-48.333 0 0-24.166 0-48.333 24.167-60.416"/>
  <path d="m241.88 256.71c24.166 12.083 24.166 36.25 24.166 60.416-12.083-12.083-36.25-12.083-48.333 0 0-24.166 0-48.333 24.167-60.416"/>
  <path d="m362.21 256.71c24.5 0 24.5 36.75 24.5 61.25h-49c0-24.5 0-61.25 24.5-61.25"/>
  <path d="m511.48 346.53c24.5 0 24.5 36.75 24.5 61.25h-49c0-24.5 0-61.25 24.5-61.25"/>
  <circle cy="363.48" cx="362.21" r="17.5"/>
  <circle cy="363.48" cx="402.21" r="17.5"/>
  <circle cy="363.48" cx="322.21" r="17.5"/>
  <circle cy="362.76" cx="261.76" r="17.5"/>
  <circle cy="362.76" cx="221.76" r="17.5"/>
  <circle cy="363.48" cx="454.3" r="17.5"/>
  <circle cy="454.21" cx="491.48" r="17.5"/>
  <circle cy="454.21" cx="531.48" r="17.5"/>
</g>
<g>
  <!-- This is the text converted to a path due to RSVG rendering bug with small font sizes. Text element is below this hidden with the opacity attribute. -->
  <path d="m 531.16207,454.77057 q -0.77393,0 -1.18956,0.42279 -0.41562,0.4228 -0.41562,1.21106 0,0.78826 0.41562,1.21105 0.41563,0.41563 1.18956,0.41563 0.76677,0 1.17523,-0.41563 0.40846,-0.42279 0.40846,-1.21105 0,-0.79543 -0.40846,-1.21106 -0.40846,-0.42279 -1.17523,-0.42279 z m -2.01365,-0.91009 q -0.97458,-0.2938 -1.46903,-0.90292 -0.49446,-0.60911 -0.49446,-1.51919 0,-1.35438 1.01041,-2.06381 1.01041,-0.70944 2.96673,-0.70944 1.94199,0 2.9524,0.70944 1.01041,0.70227 1.01041,2.06381 0,0.91008 -0.50162,1.51919 -0.49446,0.60912 -1.46903,0.90292 1.08923,0.30097 1.64101,0.98175 0.55895,0.6736 0.55895,1.70551 0,1.59085 -1.06057,2.40778 -1.0534,0.80976 -3.13155,0.80976 -2.08531,0 -3.15304,-0.80976 -1.06057,-0.81693 -1.06057,-2.40778 0,-1.03191 0.55178,-1.70551 0.55895,-0.68078 1.64818,-0.98175 z m 0.64494,-2.14264 q 0,0.63778 0.35114,0.98175 0.3583,0.34397 1.01757,0.34397 0.64494,0 0.99608,-0.34397 0.35113,-0.34397 0.35113,-0.98175 0,-0.63777 -0.35113,-0.97457 -0.35114,-0.34397 -0.99608,-0.34397 -0.65927,0 -1.01757,0.34397 -0.35114,0.34396 -0.35114,0.97457 z m -42.75885,-2.85924 8.06177,0 0,1.55503 -4.17062,9.14383 -2.68726,0 3.94847,-8.67087 -5.15236,0 0,-2.02799 z m -32.85672,-86.03348 q -0.72377,0 -1.08924,0.47296 -0.3583,0.46579 -0.3583,1.40454 0,0.93875 0.3583,1.4117 0.36547,0.46579 1.08924,0.46579 0.73093,0 1.08923,-0.46579 0.36547,-0.47295 0.36547,-1.4117 0,-0.93875 -0.36547,-1.40454 -0.3583,-0.47296 -1.08923,-0.47296 z m 3.41102,-5.13803 0,1.97782 q -0.68077,-0.32247 -1.28272,-0.47296 -0.60194,-0.15765 -1.17522,-0.15765 -1.23256,0 -1.9205,0.68794 -0.68793,0.68077 -0.80259,2.02798 0.47296,-0.35113 1.02474,-0.52312 0.55178,-0.17915 1.20389,-0.17915 1.64102,0 2.64426,0.96025 1.01041,0.96024 1.01041,2.51527 0,1.71984 -1.12507,2.75891 -1.12506,1.03191 -3.01689,1.03191 -2.08531,0 -3.23187,-1.40454 -1.1394,-1.4117 -1.1394,-3.99864 0,-2.65142 1.33288,-4.16345 1.34005,-1.5192 3.669,-1.5192 0.7381,0 1.4332,0.11466 0.69511,0.11466 1.37588,0.34397 z m -59.25003,-0.27948 6.85787,0 0,2.02799 -4.65791,0 0,1.65535 q 0.31531,-0.086 0.63061,-0.12899 0.32247,-0.0502 0.66644,-0.0502 1.95633,0 3.04556,0.98174 1.08923,0.97458 1.08923,2.72309 0,1.73417 -1.18955,2.71592 -1.1824,0.98174 -3.28921,0.98174 -0.91008,0 -1.80583,-0.17915 -0.88859,-0.17198 -1.77001,-0.53029 l 0,-2.1713 q 0.87426,0.50162 1.65535,0.75243 0.78826,0.25081 1.48337,0.25081 1.00324,0 1.57652,-0.48728 0.58045,-0.49446 0.58045,-1.33288 0,-0.84559 -0.58045,-1.33288 -0.57328,-0.48729 -1.57652,-0.48729 -0.59478,0 -1.26839,0.15765 -0.6736,0.15049 -1.44753,0.47296 l 0,-6.01946 z m -36.15185,2.27163 -3.02406,4.47876 3.02406,0 0,-4.47876 z m -0.45863,-2.27163 3.06706,0 0,6.75039 1.52636,0 0,1.99932 -1.52636,0 0,1.94916 -2.60843,0 0,-1.94916 -4.7439,0 0,-2.36479 4.28527,-6.38492 z m -38.10817,4.93022 q 1.08207,0.27948 1.64102,0.97458 0.56611,0.68794 0.56611,1.75568 0,1.59085 -1.21822,2.42211 -1.21822,0.82409 -3.55434,0.82409 -0.82409,0 -1.65535,-0.13615 -0.82409,-0.12899 -1.63385,-0.39413 l 0,-2.12831 q 0.77393,0.38696 1.53352,0.58761 0.76677,0.19348 1.50487,0.19348 1.0964,0 1.67685,-0.37979 0.58761,-0.3798 0.58761,-1.08924 0,-0.73093 -0.60195,-1.10357 -0.59478,-0.37979 -1.76284,-0.37979 l -1.10356,0 0,-1.77718 1.16089,0 q 1.03907,0 1.54786,-0.32247 0.50879,-0.32963 0.50879,-0.99607 0,-0.61628 -0.49446,-0.95308 -0.49445,-0.33681 -1.39737,-0.33681 -0.66644,0 -1.34721,0.15049 -0.68077,0.15049 -1.35438,0.44429 l 0,-2.02081 q 0.81693,-0.22932 1.61952,-0.34397 0.8026,-0.11466 1.57652,-0.11466 2.08532,0 3.11722,0.68794 1.03907,0.68077 1.03907,2.05665 0,0.93874 -0.49445,1.54069 -0.49446,0.59478 -1.46187,0.83842 z m -63.06543,3.74066 4.70807,0 0,2.02799 -7.77512,0 0,-2.02799 3.90548,-3.44685 q 0.52311,-0.47296 0.77392,-0.92442 0.25082,-0.45145 0.25082,-0.93874 0,-0.75244 -0.50879,-1.21106 -0.50162,-0.45863 -1.34005,-0.45863 -0.64494,0 -1.4117,0.27948 -0.76677,0.27231 -1.64102,0.81692 l 0,-2.35045 q 0.93158,-0.30814 1.84167,-0.46579 0.91008,-0.16482 1.78433,-0.16482 1.9205,0 2.98107,0.84559 1.06773,0.84559 1.06773,2.35762 0,0.87426 -0.45146,1.63385 -0.45145,0.75243 -1.89899,2.02082 l -2.28596,2.00648 z m -42.50812,0.12183 2.43645,0 0,-6.91521 -2.50094,0.51595 0,-1.87749 2.4866,-0.51596 2.62277,0 0,8.79271 2.43644,0 0,1.90616 -7.48132,0 0,-1.90616 z m 194.82753,-242.69428 -4.31394,0 -0.68077,1.94916 -2.77325,0 3.96281,-10.69886 3.2892,0 3.96281,10.69886 -2.77325,0 -0.67361,-1.94916 z m -3.626,-1.98498 2.9309,0 -1.46187,-4.25662 -1.46903,4.25662 z m -15.95155,-2.75892 q 0.48729,-0.74526 1.15372,-1.13223 0.67361,-0.39413 1.4762,-0.39413 1.38304,0 2.10681,0.85276 0.72377,0.85275 0.72377,2.47944 l 0,4.88722 -2.57977,0 0,-4.18495 q 0.007,-0.0932 0.007,-0.19349 0.007,-0.10032 0.007,-0.28664 0,-0.85275 -0.25081,-1.23255 -0.25081,-0.38697 -0.80976,-0.38697 -0.73094,0 -1.13223,0.60195 -0.39414,0.60195 -0.40847,1.74134 l 0,3.94131 -2.57976,0 0,-4.18495 q 0,-1.33288 -0.22932,-1.71268 -0.22931,-0.38697 -0.81692,-0.38697 -0.7381,0 -1.1394,0.60912 -0.40129,0.60194 -0.40129,1.72701 l 0,3.94847 -2.57977,0 0,-8.02594 2.57977,0 0,1.17523 q 0.47295,-0.68077 1.08206,-1.02474 0.61628,-0.34397 1.35438,-0.34397 0.83126,0 1.46903,0.4013 0.63778,0.40129 0.96742,1.12506 z m -9.37315,2.65859 0,0.73094 -5.99795,0 q 0.0932,0.90292 0.6521,1.35437 0.55895,0.45146 1.56219,0.45146 0.80976,0 1.65535,-0.23648 0.85276,-0.24364 1.74851,-0.73093 l 0,1.97782 q -0.91008,0.34397 -1.82017,0.51595 -0.91008,0.17915 -1.82016,0.17915 -2.17847,0 -3.38953,-1.10356 -1.20389,-1.11073 -1.20389,-3.11005 0,-1.96349 1.18239,-3.08856 1.18956,-1.12506 3.26771,-1.12506 1.89182,0 3.02405,1.1394 1.1394,1.13939 1.1394,3.04555 z m -2.63709,-0.85275 q 0,-0.73094 -0.42996,-1.17523 -0.4228,-0.45146 -1.11074,-0.45146 -0.74526,0 -1.21105,0.4228 -0.46579,0.41563 -0.58045,1.20389 l 3.3322,0 z m -9.5953,-5.41751 0,2.27879 2.64426,0 0,1.8345 -2.64426,0 0,3.40386 q 0,0.55895 0.22215,0.7596 0.22214,0.19348 0.88142,0.19348 l 1.31854,0 0,1.8345 -2.19996,0 q -1.5192,0 -2.15697,-0.63061 -0.63061,-0.63777 -0.63061,-2.15697 l 0,-3.40386 -1.27555,0 0,-1.8345 1.27555,0 0,-2.27879 2.56543,0 z m -5.27419,2.5296 0,1.94916 q -0.82409,-0.34397 -1.59085,-0.51595 -0.76677,-0.17199 -1.44754,-0.17199 -0.73093,0 -1.08923,0.18632 -0.35114,0.17915 -0.35114,0.55895 0,0.30814 0.26515,0.47295 0.2723,0.16482 0.96741,0.24365 l 0.45146,0.0645 q 1.97065,0.25081 2.65142,0.8241 0.68077,0.57328 0.68077,1.79867 0,1.28271 -0.94591,1.92765 -0.94591,0.64494 -2.82341,0.64494 -0.79543,0 -1.64818,-0.12898 -0.84559,-0.12183 -1.74134,-0.37264 l 0,-1.94915 q 0.76676,0.37263 1.56935,0.55895 0.80976,0.18631 1.64102,0.18631 0.75243,0 1.13223,-0.20781 0.3798,-0.20782 0.3798,-0.61628 0,-0.34397 -0.26514,-0.50879 -0.25798,-0.17198 -1.03908,-0.26514 l -0.45145,-0.0573 q -1.71268,-0.21498 -2.40062,-0.79542 -0.68794,-0.58045 -0.68794,-1.76284 0,-1.27555 0.87426,-1.89183 0.87425,-0.61628 2.68009,-0.61628 0.70943,0 1.49053,0.10749 0.78109,0.10749 1.69834,0.3368 z m -16.89746,-0.25081 2.56543,0 2.15697,5.44617 1.8345,-5.44617 2.56544,0 -3.3752,8.78554 q -0.50878,1.34004 -1.18955,1.87033 -0.67361,0.53745 -1.78434,0.53745 l -1.48337,0 0,-1.68401 0.8026,0 q 0.6521,0 0.94591,-0.20782 0.30097,-0.20781 0.46579,-0.74526 l 0.0717,-0.22215 -3.57584,-8.33408 z m -1.41887,0.25081 0,1.94916 q -0.82409,-0.34397 -1.59086,-0.51595 -0.76676,-0.17199 -1.44753,-0.17199 -0.73093,0 -1.08924,0.18632 -0.35113,0.17915 -0.35113,0.55895 0,0.30814 0.26514,0.47295 0.27231,0.16482 0.96741,0.24365 l 0.45146,0.0645 q 1.97066,0.25081 2.65143,0.8241 0.68077,0.57328 0.68077,1.79867 0,1.28271 -0.94591,1.92765 -0.94592,0.64494 -2.82341,0.64494 -0.79543,0 -1.64819,-0.12898 -0.84559,-0.12183 -1.74134,-0.37264 l 0,-1.94915 q 0.76677,0.37263 1.56936,0.55895 0.80976,0.18631 1.64102,0.18631 0.75243,0 1.13223,-0.20781 0.3798,-0.20782 0.3798,-0.61628 0,-0.34397 -0.26515,-0.50879 -0.25797,-0.17198 -1.03907,-0.26514 l -0.45146,-0.0573 q -1.71268,-0.21498 -2.40061,-0.79542 -0.68794,-0.58045 -0.68794,-1.76284 0,-1.27555 0.87425,-1.89183 0.87426,-0.61628 2.68009,-0.61628 0.70944,0 1.49053,0.10749 0.7811,0.10749 1.69835,0.3368 z m -12.51903,6.11978 q 0.82409,0 1.25405,-0.60194 0.43713,-0.60195 0.43713,-1.74851 0,-1.14656 -0.43713,-1.74851 -0.42996,-0.60195 -1.25405,-0.60195 -0.82409,0 -1.26838,0.60912 -0.43713,0.60194 -0.43713,1.74134 0,1.13939 0.43713,1.74851 0.44429,0.60194 1.26838,0.60194 z m -1.70551,-5.19536 q 0.53028,-0.70227 1.17523,-1.03191 0.64494,-0.3368 1.48336,-0.3368 1.48337,0 2.43645,1.18239 0.95308,1.17523 0.95308,3.03123 0,1.856 -0.95308,3.03839 -0.95308,1.17522 -2.43645,1.17522 -0.83842,0 -1.48336,-0.32963 -0.64495,-0.3368 -1.17523,-1.03907 l 0,1.16089 -2.56543,0 0,-11.15032 2.56543,0 0,4.29961 z m -13.11381,3.72633 0,-4.90156 2.57977,0 0,0.8026 q 0,0.6521 -0.007,1.64101 -0.007,0.98175 -0.007,1.31138 0,0.96742 0.0502,1.39738 0.0502,0.42279 0.17198,0.61628 0.15765,0.25081 0.40846,0.38696 0.25798,0.13615 0.58762,0.13615 0.80259,0 1.26122,-0.61627 0.45862,-0.61628 0.45862,-1.71268 l 0,-3.96281 2.56543,0 0,8.02594 -2.56543,0 0,-1.16089 q -0.58045,0.70227 -1.23255,1.03907 -0.64495,0.32963 -1.42604,0.32963 -1.39021,0 -2.12114,-0.85275 -0.72377,-0.85276 -0.72377,-2.47944 z m -2.9309,-7.23768 0,2.26446 q -0.88142,-0.39413 -1.71984,-0.59478 -0.83843,-0.20064 -1.58369,-0.20064 -0.98891,0 -1.46187,0.2723 -0.47296,0.27231 -0.47296,0.84559 0,0.42996 0.31531,0.67361 0.32247,0.23648 1.16089,0.40846 l 1.17523,0.23648 q 1.78434,0.3583 2.53677,1.08923 0.75243,0.73094 0.75243,2.07815 0,1.77 -1.0534,2.63709 -1.04624,0.85992 -3.20321,0.85992 -1.01758,0 -2.04232,-0.19348 -1.02474,-0.19348 -2.04948,-0.57328 l 0,-2.32895 q 1.02474,0.54461 1.97782,0.82409 0.96025,0.27231 1.84883,0.27231 0.90292,0 1.38305,-0.30098 0.48012,-0.30097 0.48012,-0.85992 0,-0.50162 -0.32964,-0.77393 -0.32247,-0.27231 -1.29705,-0.48729 l -1.06773,-0.23648 q -1.60519,-0.34396 -2.35046,-1.0964 -0.7381,-0.75243 -0.7381,-2.02798 0,-1.59802 1.03191,-2.45794 1.03191,-0.85992 2.96673,-0.85992 0.88142,0 1.813,0.13615 0.93158,0.12899 1.92766,0.39413 z"/>
</g>
<g font-size="14.676px" font-weight="700" font-family="sans-serif" fill="#000" opacity="0">
  <text style="text-anchor:middle" y="0" x="0">
   <tspan y="125.4552" x="362.71201">Subsystem A</tspan>
   <tspan y="368.10648" x="221.42894">1</tspan>
   <tspan y="368.10648" x="261.42896">2</tspan>
   <tspan y="368.10648" x="321.88596">3</tspan>
   <tspan y="368.10648" x="361.88596">4</tspan>
   <tspan y="368.10648" x="401.88596">5</tspan>
   <tspan y="368.10648" x="453.96997">6</tspan>
   <tspan y="459.55746" x="491.15497">7</tspan>
   <tspan y="459.55746" x="531.15491">8</tspan>
  </text>
</g>
</svg>